<svg width="75" height="85" viewBox="0 0 75 85" fill="none" xmlns="http://www.w3.org/2000/svg">
<path d="M0 10.3653C0 4.56183 4.7435 -0.35127 10.759 0.0197305C34.3281 1.47193 54.9981 9.40073 71.1896 24.8608C75.7847 29.2439 74.8784 36.4042 70.1137 40.0612L68.8205 41.0576L66.7164 38.7203L66.6793 38.6832C51.1185 22.7037 28.567 13.3227 4.6163 13.3227H0V10.3653ZM0 18.6174V76.8485C0 83.3781 7.4518 87.1199 12.6935 83.2138L21.2159 76.8644V76.875C21.2159 78.2807 21.7743 79.6288 22.7682 80.6227C23.7622 81.6166 25.1103 82.175 26.5159 82.175C27.9215 82.175 29.2696 81.6166 30.2636 80.6227C31.2575 79.6288 31.8159 78.2807 31.8159 76.875V66.2644C31.8213 65.5924 32.0818 64.9475 32.5446 64.4603C33.0075 63.9731 33.6382 63.68 34.3091 63.6402C34.98 63.6005 35.6409 63.8171 36.1581 64.2463C36.6752 64.6754 37.01 65.285 37.0947 65.9517V68.9197C37.0947 70.3254 37.6531 71.6735 38.647 72.6674C39.641 73.6613 40.989 74.2197 42.3947 74.2197C43.8003 74.2197 45.1484 73.6613 46.1424 72.6674C47.1363 71.6735 47.6947 70.3254 47.6947 68.9197V57.0583C52.0672 53.8518 58.7505 48.7691 64.6017 44.2959L62.8474 42.3402C48.3307 27.4578 27.189 18.6174 4.611 18.6174H0ZM22.5144 33.15C22.5141 33.6703 22.4112 34.1854 22.2118 34.6659C22.0124 35.1465 21.7203 35.583 21.3522 35.9506C20.984 36.3183 20.5471 36.6098 20.0663 36.8086C19.5855 37.0074 19.0703 37.1095 18.55 37.1091C18.0297 37.1088 17.5146 37.006 17.0341 36.8065C16.5536 36.6071 16.117 36.315 15.7494 35.9469C15.3818 35.5788 15.0902 35.1418 14.8915 34.661C14.6927 34.1802 14.5906 33.665 14.5909 33.1447C14.5909 32.094 15.0083 31.0863 15.7513 30.3434C16.4942 29.6004 17.5019 29.183 18.5527 29.183C19.6034 29.183 20.6111 29.6004 21.354 30.3434C22.097 31.0863 22.5144 32.094 22.5144 33.1447M38.2819 43.7447C38.2819 44.7955 37.8645 45.8031 37.1215 46.5461C36.3786 47.2891 35.3709 47.7065 34.3201 47.7065C33.2694 47.7065 32.2617 47.2891 31.5188 46.5461C30.7758 45.8031 30.3584 44.7955 30.3584 43.7447C30.3584 42.694 30.7758 41.6863 31.5188 40.9434C32.2617 40.2004 33.2694 39.783 34.3201 39.783C35.3709 39.783 36.3786 40.2004 37.1215 40.9434C37.8645 41.6863 38.2819 42.694 38.2819 43.7447ZM22.5568 57.0053C22.5568 58.0617 22.1372 59.0748 21.3902 59.8217C20.6433 60.5686 19.6302 60.9883 18.5738 60.9883C17.5175 60.9883 16.5044 60.5686 15.7575 59.8217C15.0105 59.0748 14.5909 58.0617 14.5909 57.0053C14.5909 55.949 15.0105 54.9359 15.7575 54.189C16.5044 53.442 17.5175 53.0224 18.5738 53.0224C19.6302 53.0224 20.6433 53.442 21.3902 54.189C22.1372 54.9359 22.5568 55.949 22.5568 57.0053Z" fill="#B55638"/>
</svg>
